<svg width="1410" height="1279" xmlns="http://www.w3.org/2000/svg" xmlns:xlink="http://www.w3.org/1999/xlink" overflow="hidden"><defs><clipPath id="clip0"><rect x="445" y="431" width="1410" height="1279"/></clipPath></defs><g clip-path="url(#clip0)" transform="translate(-445 -431)"><rect x="904.5" y="1582.5" width="442" height="109" stroke="#44546A" stroke-width="3.4375" stroke-linejoin="round" stroke-miterlimit="10" fill="#E7E6E6"/><text font-family="Arial,Arial_MSFontService,sans-serif" font-weight="400" font-size="61" transform="matrix(1 0 0 1 1057.94 1659)">Input</text><rect x="904.5" y="1336.5" width="442" height="110" stroke="#44546A" stroke-width="3.4375" stroke-linejoin="round" stroke-miterlimit="10" fill="#F4CCCC"/><text font-family="Arial,Arial_MSFontService,sans-serif" font-weight="400" font-size="56" transform="matrix(1 0 0 1 967.709 1412)">Conv(RELU)</text><rect x="904.5" y="954.5" width="442" height="109" stroke="#44546A" stroke-width="3.4375" stroke-linejoin="round" stroke-miterlimit="10" fill="#F4CCCC"/><text font-family="Arial,Arial_MSFontService,sans-serif" font-weight="400" font-size="61" transform="matrix(1 0 0 1 1064.53 1031)">……</text><rect x="904.5" y="1093.5" width="442" height="110" stroke="#44546A" stroke-width="3.4375" stroke-linejoin="round" stroke-miterlimit="10" fill="#F4CCCC"/><text font-family="Arial,Arial_MSFontService,sans-serif" font-weight="400" font-size="61" transform="matrix(1 0 0 1 953.671 1170)">Conv(RELU)</text><rect x="904.5" y="635.5" width="443" height="110" stroke="#44546A" stroke-width="3.4375" stroke-linejoin="round" stroke-miterlimit="10" fill="#A4C2F4"/><text font-family="Arial,Arial_MSFontService,sans-serif" font-weight="400" font-size="61" transform="matrix(1 0 0 1 965.231 713)">Conv(Tanh)</text><rect x="904.5" y="815.5" width="443" height="109" stroke="#44546A" stroke-width="3.4375" stroke-linejoin="round" stroke-miterlimit="10" fill="#F4CCCC"/><text font-family="Arial,Arial_MSFontService,sans-serif" font-weight="400" font-size="61" transform="matrix(1 0 0 1 953.772 892)">Conv(RELU)</text><path d="M0 0 0.00108268 136.02" stroke="#44546A" stroke-width="3.4375" stroke-linejoin="round" stroke-miterlimit="10" fill="none" fill-rule="evenodd" transform="matrix(1 0 0 -1 1125.5 1582.52)"/><path d="M1125.5 1337.39 1125.5 1203.5" stroke="#44546A" stroke-width="3.4375" stroke-linejoin="round" stroke-miterlimit="10" fill="none" fill-rule="evenodd"/><path d="M1125.5 1093.5 1125.5 1093.5" stroke="#44546A" stroke-width="3.4375" stroke-linejoin="round" stroke-miterlimit="10" fill="none" fill-rule="evenodd"/><path d="M0 0 0.10105 29.6441" stroke="#44546A" stroke-width="3.4375" stroke-linejoin="round" stroke-miterlimit="10" fill="none" fill-rule="evenodd" transform="matrix(1 0 0 -1 1125.5 954.144)"/><path d="M1125.5 1093.5 1125.5 1093.5" stroke="#44546A" stroke-width="3.4375" stroke-linejoin="round" stroke-miterlimit="10" fill="none" fill-rule="evenodd"/><path d="M1125.5 1093.5 1125.5 1093.5" stroke="#44546A" stroke-width="3.4375" stroke-linejoin="round" stroke-miterlimit="10" fill="none" fill-rule="evenodd"/><path d="M1125.5 1063.5 1125.5 1093.12" stroke="#44546A" stroke-width="3.4375" stroke-linejoin="round" stroke-miterlimit="10" fill="none" fill-rule="evenodd"/><path d="M1125.5 815.56 1125.5 745.5" stroke="#44546A" stroke-width="3.4375" stroke-linejoin="round" stroke-miterlimit="10" fill="none" fill-rule="evenodd"/><path d="M1125.5 635.955 1125.5 542.5" stroke="#44546A" stroke-width="3.4375" stroke-linejoin="round" stroke-miterlimit="10" fill="none" fill-rule="evenodd"/><text font-family="Arial,Arial_MSFontService,sans-serif" font-weight="400" font-size="51" transform="matrix(0.416928 -0.908939 0.908939 0.416928 584.084 1165)">6<tspan font-family="Microsoft YaHei,Microsoft YaHei_MSFontService,sans-serif" font-size="51" x="28.5123" y="-0.201544">层</tspan></text><path d="M861.5 1393.5C805.443 1393.5 760 1385.93 760 1376.58L760 1142.92C760 1133.57 714.557 1126 658.5 1126 714.557 1126 760 1118.43 760 1109.08L760 875.416C760 866.073 805.443 858.5 861.5 858.5" stroke="#F4CCCC" stroke-width="6.875" stroke-miterlimit="8" fill="none" fill-rule="evenodd"/><rect x="904.5" y="432.5" width="443" height="110" stroke="#44546A" stroke-width="3.4375" stroke-linejoin="round" stroke-miterlimit="10" fill="#FFE599"/><text font-family="Arial,Arial_MSFontService,sans-serif" font-weight="400" font-size="61" transform="matrix(1 0 0 1 1034.55 510)">Output</text><rect x="1416.5" y="1581.5" width="437" height="109" stroke="#000000" stroke-width="3.4375" stroke-linejoin="round" stroke-miterlimit="10" fill="#34A9E9"/><text font-family="Arial,Arial_MSFontService,sans-serif" font-weight="400" font-size="61" transform="matrix(1 0 0 1 1551.84 1658)">Quant</text><path d="M0 0 189.564 0 189.564 287.909" stroke="#000000" stroke-width="4.58333" stroke-miterlimit="8" fill="none" fill-rule="evenodd" transform="matrix(-1.83697e-16 -1 -1 1.83697e-16 1634.41 1581.06)"/><path d="M0 0 246.719 0 246.719 287.909" stroke="#000000" stroke-width="4.58333" stroke-miterlimit="8" fill="none" fill-rule="evenodd" transform="matrix(-1.83697e-16 -1 -1 1.83697e-16 1634.41 1395.22)"/><path d="M0 0 274.19 0 274.19 289.117" stroke="#000000" stroke-width="4.58333" stroke-miterlimit="8" fill="none" fill-rule="evenodd" transform="matrix(-1.83697e-16 -1 -1 1.83697e-16 1636.62 1144.69)"/><path d="M1638.63 866.02 1636.44 866.02 1636.44 690.5 1347.5 690.5" stroke="#000000" stroke-width="4.58333" stroke-miterlimit="8" fill="none" fill-rule="evenodd"/></g></svg>