<svg width="2428" height="881" xmlns="http://www.w3.org/2000/svg" xmlns:xlink="http://www.w3.org/1999/xlink" overflow="hidden"><defs><clipPath id="clip0"><rect x="516" y="1158" width="2428" height="881"/></clipPath></defs><g clip-path="url(#clip0)" transform="translate(-516 -1158)"><rect x="689.5" y="1548.5" width="591" height="489" stroke="#44546A" stroke-width="3.4375" stroke-linejoin="round" stroke-miterlimit="10" fill="#F4CCCC"/><rect x="535.5" y="1604.5" width="109" height="370" stroke="#44546A" stroke-width="3.4375" stroke-linejoin="round" stroke-miterlimit="10" fill="#E7E6E6"/><text font-family="Arial,Arial_MSFontService,sans-serif" font-weight="400" font-size="61" transform="matrix(6.12323e-17 1 -1 6.12323e-17 566.607 1722)">Input</text><rect x="720.5" y="1635.5" width="109" height="308" stroke="#44546A" stroke-width="3.4375" stroke-linejoin="round" stroke-miterlimit="10" fill="#F4CCCC"/><text font-family="Arial,Arial_MSFontService,sans-serif" font-weight="400" font-size="56" transform="matrix(6.12323e-17 1 -1 6.12323e-17 753.732 1724)">Conv</text><rect x="2005.5" y="1548.5" width="110" height="489" stroke="#44546A" stroke-width="3.4375" stroke-linejoin="round" stroke-miterlimit="10" fill="#F4CCCC"/><text font-family="Arial,Arial_MSFontService,sans-serif" font-weight="400" font-size="61" transform="matrix(6.12323e-17 1 -1 6.12323e-17 2037.34 1732)">……</text><path d="M0 0 0.000360892 62.5726" stroke="#44546A" stroke-width="3.4375" stroke-linejoin="round" stroke-miterlimit="10" fill="none" fill-rule="evenodd" transform="matrix(6.12323e-17 1 1 -6.12323e-17 1280.5 1793.5)"/><path d="M2005.77 1793.5 1933.5 1793.5" stroke="#44546A" stroke-width="3.4375" stroke-linejoin="round" stroke-miterlimit="10" fill="none" fill-rule="evenodd"/><text font-family="Arial,Arial_MSFontService,sans-serif" font-weight="400" font-size="51" transform="matrix(0.908939 0.416928 -0.416928 0.908939 1647.87 1288)">6<tspan font-family="Microsoft YaHei,Microsoft YaHei_MSFontService,sans-serif" font-size="51" x="28.1962" y="0.268676">层</tspan></text><path d="M1415.5 1527.5C1415.5 1480.28 1421.88 1442 1429.75 1442L1748.75 1442C1756.62 1442 1763 1403.72 1763 1356.5 1763 1403.72 1769.38 1442 1777.25 1442L2096.25 1442C2104.12 1442 2110.5 1480.28 2110.5 1527.5" stroke="#F4CCCC" stroke-width="6.875" stroke-miterlimit="8" fill="none" fill-rule="evenodd"/><rect x="2833.5" y="1548.5" width="109" height="489" stroke="#44546A" stroke-width="3.4375" stroke-linejoin="round" stroke-miterlimit="10" fill="#FFE599"/><text font-family="Arial,Arial_MSFontService,sans-serif" font-weight="400" font-size="61" transform="matrix(6.12323e-17 1 -1 6.12323e-17 2865.02 1702)">Output</text><rect x="874.5" y="1635.5" width="110" height="308" stroke="#44546A" stroke-width="3.4375" stroke-linejoin="round" stroke-miterlimit="10" fill="#B6D7A8"/><text font-family="Arial,Arial_MSFontService,sans-serif" font-weight="400" font-size="56" transform="matrix(6.12323e-17 1 -1 6.12323e-17 908.23 1744)">Mul</text><rect x="1017.5" y="1635.5" width="110" height="308" stroke="#44546A" stroke-width="3.4375" stroke-linejoin="round" stroke-miterlimit="10" fill="#B6D7A8"/><text font-family="Arial,Arial_MSFontService,sans-serif" font-weight="400" font-size="56" transform="matrix(6.12323e-17 1 -1 6.12323e-17 1051.51 1739)">Add</text><path d="M0 0 0.000360892 33.8163" stroke="#44546A" stroke-width="3.4375" stroke-linejoin="round" stroke-miterlimit="10" fill="none" fill-rule="evenodd" transform="matrix(6.12323e-17 1 1 -6.12323e-17 984.5 1789.5)"/><rect x="1155.5" y="1635.5" width="109" height="308" stroke="#44546A" stroke-width="3.4375" stroke-linejoin="round" stroke-miterlimit="10" fill="#F4CCCC"/><text font-family="Arial,Arial_MSFontService,sans-serif" font-weight="400" font-size="56" transform="matrix(6.12323e-17 1 -1 6.12323e-17 1188.88 1715)">RELU</text><path d="M0 0 0.000360892 27.9089" stroke="#000000" stroke-width="4.58333" stroke-miterlimit="8" fill="none" fill-rule="evenodd" transform="matrix(6.12323e-17 1 1 -6.12323e-17 1127.5 1789.5)"/><path d="M0 0 0.000360892 45.035" stroke="#000000" stroke-width="4.58333" stroke-miterlimit="8" fill="none" fill-rule="evenodd" transform="matrix(6.12323e-17 1 1 -6.12323e-17 829.5 1789.5)"/><path d="M720.169 1789.5 644.5 1789.5" stroke="#000000" stroke-width="4.58333" stroke-miterlimit="8" fill="none" fill-rule="evenodd"/><rect x="1342.5" y="1548.5" width="591" height="489" stroke="#44546A" stroke-width="3.4375" stroke-linejoin="round" stroke-miterlimit="10" fill="#F4CCCC"/><rect x="1373.5" y="1635.5" width="109" height="308" stroke="#44546A" stroke-width="3.4375" stroke-linejoin="round" stroke-miterlimit="10" fill="#F4CCCC"/><text font-family="Arial,Arial_MSFontService,sans-serif" font-weight="400" font-size="56" transform="matrix(6.12323e-17 1 -1 6.12323e-17 1407 1724)">Conv</text><rect x="1527.5" y="1635.5" width="110" height="308" stroke="#44546A" stroke-width="3.4375" stroke-linejoin="round" stroke-miterlimit="10" fill="#B6D7A8"/><text font-family="Arial,Arial_MSFontService,sans-serif" font-weight="400" font-size="56" transform="matrix(6.12323e-17 1 -1 6.12323e-17 1561.5 1744)">Mul</text><rect x="1671.5" y="1635.5" width="109" height="308" stroke="#44546A" stroke-width="3.4375" stroke-linejoin="round" stroke-miterlimit="10" fill="#B6D7A8"/><text font-family="Arial,Arial_MSFontService,sans-serif" font-weight="400" font-size="56" transform="matrix(6.12323e-17 1 -1 6.12323e-17 1704.78 1739)">Add</text><path d="M0 0 0.000360892 33.8163" stroke="#44546A" stroke-width="3.4375" stroke-linejoin="round" stroke-miterlimit="10" fill="none" fill-rule="evenodd" transform="matrix(6.12323e-17 1 1 -6.12323e-17 1637.5 1789.5)"/><rect x="1808.5" y="1635.5" width="110" height="308" stroke="#44546A" stroke-width="3.4375" stroke-linejoin="round" stroke-miterlimit="10" fill="#F4CCCC"/><text font-family="Arial,Arial_MSFontService,sans-serif" font-weight="400" font-size="56" transform="matrix(6.12323e-17 1 -1 6.12323e-17 1842.15 1715)">RELU</text><path d="M0 0 0.000360892 27.9089" stroke="#000000" stroke-width="4.58333" stroke-miterlimit="8" fill="none" fill-rule="evenodd" transform="matrix(6.12323e-17 1 1 -6.12323e-17 1780.5 1789.5)"/><path d="M0 0 0.000360892 45.035" stroke="#000000" stroke-width="4.58333" stroke-miterlimit="8" fill="none" fill-rule="evenodd" transform="matrix(6.12323e-17 1 1 -6.12323e-17 1482.5 1789.5)"/><rect x="2169.5" y="1548.5" width="591" height="489" stroke="#44546A" stroke-width="3.4375" stroke-linejoin="round" stroke-miterlimit="10" fill="#A4C2F4"/><rect x="2200.5" y="1635.5" width="110" height="308" stroke="#44546A" stroke-width="3.4375" stroke-linejoin="round" stroke-miterlimit="10" fill="#A4C2F4"/><text font-family="Arial,Arial_MSFontService,sans-serif" font-weight="400" font-size="56" transform="matrix(6.12323e-17 1 -1 6.12323e-17 2234.16 1724)">Conv</text><rect x="2355.5" y="1635.5" width="109" height="308" stroke="#44546A" stroke-width="3.4375" stroke-linejoin="round" stroke-miterlimit="10" fill="#B6D7A8"/><text font-family="Arial,Arial_MSFontService,sans-serif" font-weight="400" font-size="56" transform="matrix(6.12323e-17 1 -1 6.12323e-17 2388.66 1744)">Mul</text><rect x="2498.5" y="1635.5" width="109" height="308" stroke="#44546A" stroke-width="3.4375" stroke-linejoin="round" stroke-miterlimit="10" fill="#B6D7A8"/><text font-family="Arial,Arial_MSFontService,sans-serif" font-weight="400" font-size="56" transform="matrix(6.12323e-17 1 -1 6.12323e-17 2531.94 1739)">Add</text><path d="M0 0 0.000360892 33.8163" stroke="#44546A" stroke-width="3.4375" stroke-linejoin="round" stroke-miterlimit="10" fill="none" fill-rule="evenodd" transform="matrix(6.12323e-17 1 1 -6.12323e-17 2464.5 1789.5)"/><rect x="2635.5" y="1635.5" width="110" height="308" stroke="#44546A" stroke-width="3.4375" stroke-linejoin="round" stroke-miterlimit="10" fill="#A4C2F4"/><text font-family="Arial,Arial_MSFontService,sans-serif" font-weight="400" font-size="56" transform="matrix(6.12323e-17 1 -1 6.12323e-17 2669.31 1726)">Tanh</text><path d="M0 0 0.000360892 27.9089" stroke="#000000" stroke-width="4.58333" stroke-miterlimit="8" fill="none" fill-rule="evenodd" transform="matrix(6.12323e-17 1 1 -6.12323e-17 2607.5 1789.5)"/><path d="M0 0 0.000360892 45.035" stroke="#000000" stroke-width="4.58333" stroke-miterlimit="8" fill="none" fill-rule="evenodd" transform="matrix(6.12323e-17 1 1 -6.12323e-17 2310.5 1789.5)"/><path d="M0 0 0.000360892 54.7308" stroke="#000000" stroke-width="4.58333" stroke-miterlimit="8" fill="none" fill-rule="evenodd" transform="matrix(6.12323e-17 1 1 -6.12323e-17 2115.5 1793.5)"/><path d="M0 0 0.000360892 72.7812" stroke="#000000" stroke-width="4.58333" stroke-miterlimit="8" fill="none" fill-rule="evenodd" transform="matrix(6.12323e-17 1 1 -6.12323e-17 2760.5 1793.5)"/><path d="M2086.5 1218.5 2086.5 1218.5" stroke="#44546A" stroke-width="3.4375" stroke-linejoin="round" stroke-miterlimit="10" fill="none" fill-rule="evenodd"/><path d="M2086.5 1218.5 2086.5 1218.5" stroke="#44546A" stroke-width="3.4375" stroke-linejoin="round" stroke-miterlimit="10" fill="none" fill-rule="evenodd"/><path d="M2086.5 1218.5 2086.5 1218.5" stroke="#44546A" stroke-width="3.4375" stroke-linejoin="round" stroke-miterlimit="10" fill="none" fill-rule="evenodd"/></g></svg>