<svg width="1785" height="2526" xmlns="http://www.w3.org/2000/svg" xmlns:xlink="http://www.w3.org/1999/xlink" overflow="hidden"><defs><clipPath id="clip0"><rect x="2454" y="408" width="1785" height="2526"/></clipPath></defs><g clip-path="url(#clip0)" transform="translate(-2454 -408)"><rect x="2845.5" y="2071.5" width="488" height="591" stroke="#44546A" stroke-width="3.4375" stroke-linejoin="round" stroke-miterlimit="10" fill="#F4CCCC"/><rect x="2900.5" y="2707.5" width="370" height="110" stroke="#44546A" stroke-width="3.4375" stroke-linejoin="round" stroke-miterlimit="10" fill="#E7E6E6"/><text font-family="Arial,Arial_MSFontService,sans-serif" font-weight="400" font-size="61" transform="matrix(1 0 0 1 3017.67 2784)">Input</text><rect x="2931.5" y="2522.5" width="308" height="109" stroke="#44546A" stroke-width="3.4375" stroke-linejoin="round" stroke-miterlimit="10" fill="#F4CCCC"/><text font-family="Arial,Arial_MSFontService,sans-serif" font-weight="400" font-size="56" transform="matrix(1 0 0 1 3019.96 2597)">Conv</text><rect x="2845.5" y="1236.5" width="488" height="110" stroke="#44546A" stroke-width="3.4375" stroke-linejoin="round" stroke-miterlimit="10" fill="#F4CCCC"/><text font-family="Arial,Arial_MSFontService,sans-serif" font-weight="400" font-size="61" transform="matrix(1 0 0 1 3028.23 1314)">……</text><path d="M0 0 0.000360892 62.5726" stroke="#44546A" stroke-width="3.4375" stroke-linejoin="round" stroke-miterlimit="10" fill="none" fill-rule="evenodd" transform="matrix(1 0 0 -1 3089.5 2072.07)"/><path d="M3089.5 1346.5 3089.5 1418.77" stroke="#44546A" stroke-width="3.4375" stroke-linejoin="round" stroke-miterlimit="10" fill="none" fill-rule="evenodd"/><text font-family="Arial,Arial_MSFontService,sans-serif" font-weight="400" font-size="51" transform="matrix(0.416928 -0.908939 0.908939 0.416928 2584.38 1703)">6<tspan font-family="Microsoft YaHei,Microsoft YaHei_MSFontService,sans-serif" font-size="51" x="27.6034" y="0.215329">层</tspan></text><path d="M2823.5 1936.5C2776.28 1936.5 2738 1930.12 2738 1922.25L2738 1603.25C2738 1595.38 2699.72 1589 2652.5 1589 2699.72 1589 2738 1582.62 2738 1574.75L2738 1255.75C2738 1247.88 2776.28 1241.5 2823.5 1241.5" stroke="#F4CCCC" stroke-width="6.875" stroke-miterlimit="8" fill="none" fill-rule="evenodd"/><rect x="2845.5" y="409.5" width="488" height="109" stroke="#44546A" stroke-width="3.4375" stroke-linejoin="round" stroke-miterlimit="10" fill="#FFE599"/><text font-family="Arial,Arial_MSFontService,sans-serif" font-weight="400" font-size="61" transform="matrix(1 0 0 1 2998.15 486)">Output</text><rect x="2931.5" y="2367.5" width="308" height="110" stroke="#44546A" stroke-width="3.4375" stroke-linejoin="round" stroke-miterlimit="10" fill="#B6D7A8"/><text font-family="Arial,Arial_MSFontService,sans-serif" font-weight="400" font-size="56" transform="matrix(1 0 0 1 3040.01 2443)">Mul</text><rect x="2931.5" y="2224.5" width="308" height="110" stroke="#44546A" stroke-width="3.4375" stroke-linejoin="round" stroke-miterlimit="10" fill="#B6D7A8"/><text font-family="Arial,Arial_MSFontService,sans-serif" font-weight="400" font-size="56" transform="matrix(1 0 0 1 3035.43 2300)">Add</text><path d="M0 0 0.000360892 33.8163" stroke="#44546A" stroke-width="3.4375" stroke-linejoin="round" stroke-miterlimit="10" fill="none" fill-rule="evenodd" transform="matrix(1 0 0 -1 3085.5 2368.32)"/><rect x="2931.5" y="2087.5" width="308" height="109" stroke="#44546A" stroke-width="3.4375" stroke-linejoin="round" stroke-miterlimit="10" fill="#F4CCCC"/><text font-family="Arial,Arial_MSFontService,sans-serif" font-weight="400" font-size="56" transform="matrix(1 0 0 1 3010.79 2162)">RELU</text><path d="M0 0 0.000360892 27.9089" stroke="#000000" stroke-width="4.58333" stroke-miterlimit="8" fill="none" fill-rule="evenodd" transform="matrix(1 0 0 -1 3085.5 2224.41)"/><path d="M0 0 0.000360892 45.035" stroke="#000000" stroke-width="4.58333" stroke-miterlimit="8" fill="none" fill-rule="evenodd" transform="matrix(1 0 0 -1 3085.5 2522.53)"/><path d="M3085.5 2631.5 3085.5 2707.17" stroke="#000000" stroke-width="4.58333" stroke-miterlimit="8" fill="none" fill-rule="evenodd"/><rect x="2845.5" y="1418.5" width="488" height="591" stroke="#44546A" stroke-width="3.4375" stroke-linejoin="round" stroke-miterlimit="10" fill="#F4CCCC"/><rect x="2931.5" y="1869.5" width="308" height="109" stroke="#44546A" stroke-width="3.4375" stroke-linejoin="round" stroke-miterlimit="10" fill="#F4CCCC"/><text font-family="Arial,Arial_MSFontService,sans-serif" font-weight="400" font-size="56" transform="matrix(1 0 0 1 3019.96 1944)">Conv</text><rect x="2931.5" y="1714.5" width="308" height="110" stroke="#44546A" stroke-width="3.4375" stroke-linejoin="round" stroke-miterlimit="10" fill="#B6D7A8"/><text font-family="Arial,Arial_MSFontService,sans-serif" font-weight="400" font-size="56" transform="matrix(1 0 0 1 3040.01 1790)">Mul</text><rect x="2931.5" y="1571.5" width="308" height="109" stroke="#44546A" stroke-width="3.4375" stroke-linejoin="round" stroke-miterlimit="10" fill="#B6D7A8"/><text font-family="Arial,Arial_MSFontService,sans-serif" font-weight="400" font-size="56" transform="matrix(1 0 0 1 3035.43 1646)">Add</text><path d="M0 0 0.000360892 33.8163" stroke="#44546A" stroke-width="3.4375" stroke-linejoin="round" stroke-miterlimit="10" fill="none" fill-rule="evenodd" transform="matrix(1 0 0 -1 3085.5 1714.32)"/><rect x="2931.5" y="1434.5" width="308" height="109" stroke="#44546A" stroke-width="3.4375" stroke-linejoin="round" stroke-miterlimit="10" fill="#F4CCCC"/><text font-family="Arial,Arial_MSFontService,sans-serif" font-weight="400" font-size="56" transform="matrix(1 0 0 1 3010.79 1509)">RELU</text><path d="M0 0 0.000360892 27.9089" stroke="#000000" stroke-width="4.58333" stroke-miterlimit="8" fill="none" fill-rule="evenodd" transform="matrix(1 0 0 -1 3085.5 1571.41)"/><path d="M0 0 0.000360892 45.035" stroke="#000000" stroke-width="4.58333" stroke-miterlimit="8" fill="none" fill-rule="evenodd" transform="matrix(1 0 0 -1 3085.5 1869.54)"/><rect x="2845.5" y="591.5" width="488" height="591" stroke="#44546A" stroke-width="3.4375" stroke-linejoin="round" stroke-miterlimit="10" fill="#A4C2F4"/><rect x="2931.5" y="1042.5" width="308" height="109" stroke="#44546A" stroke-width="3.4375" stroke-linejoin="round" stroke-miterlimit="10" fill="#A4C2F4"/><text font-family="Arial,Arial_MSFontService,sans-serif" font-weight="400" font-size="56" transform="matrix(1 0 0 1 3019.96 1117)">Conv</text><rect x="2931.5" y="887.5" width="308" height="110" stroke="#44546A" stroke-width="3.4375" stroke-linejoin="round" stroke-miterlimit="10" fill="#B6D7A8"/><text font-family="Arial,Arial_MSFontService,sans-serif" font-weight="400" font-size="56" transform="matrix(1 0 0 1 3040.01 962)">Mul</text><rect x="2931.5" y="744.5" width="308" height="109" stroke="#44546A" stroke-width="3.4375" stroke-linejoin="round" stroke-miterlimit="10" fill="#B6D7A8"/><text font-family="Arial,Arial_MSFontService,sans-serif" font-weight="400" font-size="56" transform="matrix(1 0 0 1 3035.43 819)">Add</text><path d="M0 0 0.000360892 33.8163" stroke="#44546A" stroke-width="3.4375" stroke-linejoin="round" stroke-miterlimit="10" fill="none" fill-rule="evenodd" transform="matrix(1 0 0 -1 3085.5 887.316)"/><rect x="2931.5" y="606.5" width="308" height="110" stroke="#44546A" stroke-width="3.4375" stroke-linejoin="round" stroke-miterlimit="10" fill="#A4C2F4"/><text font-family="Arial,Arial_MSFontService,sans-serif" font-weight="400" font-size="56" transform="matrix(1 0 0 1 3021.68 682)">Tanh</text><path d="M0 0 0.000360892 27.9089" stroke="#000000" stroke-width="4.58333" stroke-miterlimit="8" fill="none" fill-rule="evenodd" transform="matrix(1 0 0 -1 3085.5 744.409)"/><path d="M0 0 0.000360892 45.035" stroke="#000000" stroke-width="4.58333" stroke-miterlimit="8" fill="none" fill-rule="evenodd" transform="matrix(1 0 0 -1 3085.5 1042.54)"/><path d="M0 0 0.000360892 54.7308" stroke="#000000" stroke-width="4.58333" stroke-miterlimit="8" fill="none" fill-rule="evenodd" transform="matrix(1 0 0 -1 3089.5 1237.23)"/><path d="M0 0 0.000360892 72.7812" stroke="#000000" stroke-width="4.58333" stroke-miterlimit="8" fill="none" fill-rule="evenodd" transform="matrix(1 0 0 -1 3089.5 591.281)"/><path d="M0.027387-1.71853 15.7149-1.46853 31.4018-0.653931 47.0194 0.66233 62.5746 2.48038 77.9374 4.73701 93.1812 7.49625 108.293 10.6935 123.159 14.3305 137.768 18.3426 152.067 22.7319 179.769 32.6952 193.156 38.224 206.076 43.9931 218.572 50.1456 230.619 56.5446 242.177 63.2642 253.171 70.2361 263.657 77.393 273.591 84.8104 282.906 92.4863 291.528 100.288 299.528 108.285 306.787 116.486 313.35 124.811 319.164 133.21 324.113 141.765 328.298 150.442 331.608 159.206 333.973 167.992 335.446 176.844 335.966 185.777 336.466 194.464 337.883 202.969 340.161 211.495 343.358 219.956 347.421 228.312 352.241 236.707 357.914 244.897 364.293 253.068 371.466 261.038 379.34 268.91 387.846 276.668 397.025 284.169 406.783 291.501 417.162 298.647 428.098 305.48 439.552 312.139 451.494 318.482 463.884 324.583 476.707 330.371 489.903 335.785 517.457 345.695 531.629 350.044 546.143 354.03 560.909 357.643 575.918 360.818 591.056 363.559 606.374 365.799 621.763 367.605 637.269 368.912 650.192 369.531 650.027 372.965 636.981 372.338 621.362 371.02 605.876 369.201 590.444 366.941 575.207 364.182 560.091 360.982 545.232 357.345 530.621 353.331 516.293 348.93 488.597 338.965 475.293 333.504 462.366 327.667 449.881 321.518 437.823 315.111 426.277 308.395 415.213 301.478 404.717 294.249 394.85 286.831 385.529 279.207 376.91 271.34 368.909 263.337 361.582 255.182 355.086 246.853 349.259 238.418 344.329 229.813 340.142 221.169 336.839 212.38 334.492 203.531 333.034 194.661 332.534 185.973 332.054 177.406 330.652 168.883 328.392 160.419 325.202 151.933 321.137 143.485 316.336 135.165 310.65 126.939 304.213 118.764 297.097 110.715 289.222 102.837 280.719 95.1387 271.534 87.5646 261.718 80.232 251.329 73.1389 240.448 66.2358 229.006 59.5804 217.053 53.2294 204.674 47.1319 191.844 41.401 178.606 35.9298 151.058 26.0181 136.857 21.6574 122.341 17.6695 107.582 14.0565 92.5688 10.8787 77.4376 8.13799 62.1754 5.89462 46.7306 4.08767 31.2232 2.77893 15.6601 1.96853-0.027387 1.71853ZM650.109 371.248 641.275 357.283 668.438 371.688 640.616 384.775Z" fill="#44546A" transform="matrix(1 0 0 -1 3236.5 2527.18)"/><path d="M3236.53 2628.78 3267.84 2629.34 3298.97 2631.1 3329.53 2633.79 3359.46 2637.54 3388.33 2642.11 3416.02 2647.56 3429.38 2650.57 3442.29 2653.77 3454.75 2657.09 3466.79 2660.6 3478.34 2664.3 3489.31 2668.06 3499.79 2672.02 3509.71 2676.03 3519.02 2680.25 3527.64 2684.52 3535.63 2688.86 3542.9 2693.35 3549.48 2697.9 3555.33 2702.6 3560.31 2707.32 3564.53 2712.04 3567.92 2716.97C3567.97 2717.04 3568.01 2717.11 3568.05 2717.18L3570.36 2721.93C3570.4 2722.02 3570.43 2722.1 3570.46 2722.19L3571.9 2726.94C3571.93 2727.04 3571.95 2727.15 3571.96 2727.26L3572.46 2732.01 3572.96 2736.76 3572.9 2736.44 3574.33 2741.19 3574.23 2740.93 3576.55 2745.68 3576.41 2745.46 3579.66 2750.15 3583.67 2754.68 3588.43 2759.19 3594.07 2763.65 3600.42 2768.09 3607.58 2772.47 3615.45 2776.74 3623.95 2780.96 3633.15 2785.12 3642.9 2789.1 3653.29 2793.02 3664.25 2796.81 3675.7 2800.42 3687.67 2803.91 3700.07 2807.21 3712.91 2810.39 3726.13 2813.39 3753.71 2818.81 3782.46 2823.36 3812.27 2827.04 3842.78 2829.79 3873.72 2831.47 3886.64 2831.73 3886.57 2835.16 3873.53 2834.9 3842.47 2833.21 3811.85 2830.46 3781.92 2826.76 3753.04 2822.19 3725.37 2816.74 3712.09 2813.73 3699.18 2810.54 3686.71 2807.21 3674.67 2803.7 3663.12 2800.06 3652.08 2796.23 3641.6 2792.28 3631.73 2788.25 3622.42 2784.04 3613.8 2779.76 3605.79 2775.4 3598.45 2770.91 3591.93 2766.35 3586.07 2761.68 3581.08 2756.95 3576.84 2752.1 3573.59 2747.42C3573.54 2747.34 3573.49 2747.27 3573.45 2747.19L3571.14 2742.44C3571.1 2742.36 3571.07 2742.27 3571.04 2742.19L3569.6 2737.44C3569.57 2737.33 3569.55 2737.22 3569.54 2737.12L3569.04 2732.37 3568.54 2727.62 3568.6 2727.94 3567.17 2723.19 3567.27 2723.44 3564.95 2718.69 3565.08 2718.91 3561.97 2714.33 3557.94 2709.81 3553.17 2705.28 3547.52 2700.73 3541.1 2696.27 3533.99 2691.89 3526.11 2687.6 3517.6 2683.38 3508.42 2679.22 3498.58 2675.23 3488.19 2671.31 3477.29 2667.57 3465.83 2663.9 3453.87 2660.41 3441.46 2657.11 3428.62 2653.93 3415.36 2650.94 3387.79 2645.51 3359.04 2640.96 3329.22 2637.21 3298.78 2634.53 3267.78 2632.78 3236.47 2632.22ZM3886.61 2833.45 3877.72 2819.52 3904.94 2833.81 3877.17 2847.01Z" fill="#44546A"/><rect x="3905.5" y="2778.5" width="332" height="110" stroke="#44546A" stroke-width="3.4375" stroke-linejoin="round" stroke-miterlimit="10" fill="#F9CB9C"/><text font-family="Arial,Arial_MSFontService,sans-serif" font-weight="400" font-size="56" transform="matrix(1 0 0 1 3954.84 2820)">Transpos<tspan font-size="56" x="100.558" y="67">e</tspan></text><rect x="3905.5" y="2313.5" width="332" height="110" stroke="#44546A" stroke-width="3.4375" stroke-linejoin="round" stroke-miterlimit="10" fill="#8E7CC3"/><text font-family="Arial,Arial_MSFontService,sans-serif" font-weight="400" font-size="61" transform="matrix(1 0 0 1 3971.46 2391)">MatMul</text><rect x="3905.5" y="2537.5" width="332" height="109" stroke="#44546A" stroke-width="3.4375" stroke-linejoin="round" stroke-miterlimit="10" fill="#A4C2F4"/><text font-family="Arial,Arial_MSFontService,sans-serif" font-weight="400" font-size="61" transform="matrix(1 0 0 1 3974.89 2614)">Im2Col</text><path d="M3578.5 1681.5 3578.5 1681.5" stroke="#44546A" stroke-width="3.4375" stroke-linejoin="round" stroke-miterlimit="10" fill="none" fill-rule="evenodd"/><path d="M3578.5 1681.5 3578.5 1681.5" stroke="#44546A" stroke-width="3.4375" stroke-linejoin="round" stroke-miterlimit="10" fill="none" fill-rule="evenodd"/><path d="M3578.5 1681.5 3578.5 1681.5" stroke="#44546A" stroke-width="3.4375" stroke-linejoin="round" stroke-miterlimit="10" fill="none" fill-rule="evenodd"/><rect x="3905.5" y="2101.5" width="332" height="109" stroke="#44546A" stroke-width="3.4375" stroke-linejoin="round" stroke-miterlimit="10" fill="#F9CB9C"/><text font-family="Arial,Arial_MSFontService,sans-serif" font-weight="400" font-size="56" transform="matrix(1 0 0 1 3954.84 2143)">Transpos<tspan font-size="56" x="100.558" y="67">e</tspan></text><path d="M0 0 0.000360892 131.953" stroke="#000000" stroke-width="4.58333" stroke-miterlimit="8" fill="none" fill-rule="evenodd" transform="matrix(1 0 0 -1 4071.5 2778.45)"/><path d="M0 0 0.000360892 114.055" stroke="#000000" stroke-width="4.58333" stroke-miterlimit="8" fill="none" fill-rule="evenodd" transform="matrix(1 0 0 -1 4071.5 2537.55)"/><path d="M0 0 0.000360892 103.373" stroke="#000000" stroke-width="4.58333" stroke-miterlimit="8" fill="none" fill-rule="evenodd" transform="matrix(1 0 0 -1 4071.5 2313.87)"/></g></svg>